<svg t="1695380448203" class="icon" viewBox="0 0 1024 1024" version="1.1" xmlns="http://www.w3.org/2000/svg"
	p-id="26884" width="32" height="32">
	<path d="M512 512m-512 0a512 512 0 1 0 1024 0 512 512 0 1 0-1024 0Z" fill="#d9ba43" fill-opacity=".3" p-id="26885">
	</path>
	<path
		d="M743.472762 395.288381H597.333333C653.945905 181.589333 558.32381 170.666667 558.32381 170.666667c-40.545524 0-32.158476 32.743619-35.206096 38.204952 0 104.521143-108.641524 186.416762-108.641524 186.416762v296.350476c0 29.257143 39.009524 39.789714 54.320762 39.789714h219.574858c20.675048 0 37.497905-55.369143 37.497904-55.369142C780.190476 487.302095 780.190476 431.152762 780.190476 431.152762c0-39.009524-36.717714-35.864381-36.717714-35.864381zM364.690286 390.095238H264.777143c-20.650667 0-20.967619 18.432-20.967619 18.432l20.626286 303.567238c0 19.334095 21.308952 19.334095 21.308952 19.334095h86.503619c18.017524 0 17.846857-12.775619 17.846857-12.775619V413.110857c0-23.30819-25.404952-23.015619-25.404952-23.015619z"
		fill="#d9ba43" p-id="26886"></path>
</svg>