<svg t="1695392527945" class="icon" viewBox="0 0 1174 1024" version="1.1" xmlns="http://www.w3.org/2000/svg"
	p-id="10523" width="32" height="32">
	<path
		d="M456.923429 720.822857l293.302857-170.642286c26.989714-15.725714 26.989714-60.635429 0-76.288l-293.302857-170.715428c-24.429714-14.116571-53.101714 6.363429-53.101715 38.180571v341.357715c0 31.744 28.672 52.224 53.101715 38.107428zM1064.155429 0H110.153143C49.810286 0 0.512 57.782857 0.512 128.658286v766.683428C0.512 966.363429 49.371429 1024 110.153143 1024h954.002286c60.416 0 109.641143-57.856 109.641142-128.658286V128.658286C1173.796571 57.563429 1124.937143 0 1064.155429 0zM220.452571 895.561143c0 23.771429-15.725714 43.081143-37.083428 43.081143h-72.557714c-20.48 0-37.083429-18.285714-37.083429-43.081143V811.154286c0-23.771429 15.725714-43.081143 37.083429-43.081143h72.630857c20.48 0 37.010286 18.285714 37.010285 43.081143v84.406857z m0-341.357714c0 23.844571-15.725714 43.081143-37.083428 43.081142h-72.557714c-20.406857 0-37.083429-18.139429-37.083429-43.081142V469.723429c0-23.698286 15.725714-43.008 37.083429-43.008h72.630857c20.48 0 37.010286 18.212571 37.010285 43.008v84.48z m0-341.211429c0 23.698286-15.725714 43.008-37.083428 43.008h-72.557714c-20.406857 0-37.083429-18.285714-37.083429-43.008V128.512c0-23.844571 15.725714-43.081143 37.083429-43.081143h72.630857c20.48 0 37.010286 18.285714 37.010285 43.081143v84.48z m660.114286 725.650286H293.888V85.357714h586.678857v853.284572z m219.940572-43.081143c0 23.771429-15.725714 43.081143-37.010286 43.081143h-72.630857c-20.333714 0-36.864-18.285714-36.864-43.081143V811.154286c0-23.771429 15.652571-43.081143 36.937143-43.081143h72.630857c20.333714 0 36.937143 18.285714 36.937143 43.081143v84.406857z m0-341.357714c0 23.844571-15.725714 43.081143-37.010286 43.081142h-72.630857c-20.333714 0-36.864-18.285714-36.864-43.081142V469.723429c0-23.698286 15.652571-43.008 36.937143-43.008h72.630857c20.333714 0 36.937143 18.212571 36.937143 43.008v84.48z m0-341.211429c0 23.698286-15.725714 43.008-37.010286 43.008h-72.630857c-20.333714 0-36.864-18.285714-36.864-43.008V128.512c0-23.844571 15.652571-43.081143 36.937143-43.081143h72.630857c20.333714 0 36.937143 18.285714 36.937143 43.081143v84.48z"
		fill="#da5c63" p-id="10524"></path>
</svg>