<svg t="1694998982040" class="icon" viewBox="0 0 1024 1024" version="1.1" xmlns="http://www.w3.org/2000/svg" p-id="9250" width="32" height="32"><path d="M901.992 1009.288H686.144c-21.648 0-39.168-17.232-39.168-38.584 0-21.352 17.52-38.608 39.168-38.608h215.848c21.6-0.008 39.104-17.272 39.096-38.56V700.608c-0.008-21.296 17.496-38.568 39.104-38.576h0.072c21.592-0.024 39.112 17.2 39.152 38.472V893.52c-0.016 63.84-52.704 115.768-117.424 115.768m-560.008 0H118.96c-64.768 0-117.44-51.936-117.44-115.76V700.616c0-21.344 17.544-38.576 39.16-38.576s39.12 17.224 39.12 38.576v192.912c0 21.304 17.592 38.584 39.16 38.584h223.024c21.624-0.008 39.168 17.256 39.176 38.568v0.04c0.008 21.296-17.496 38.568-39.104 38.576l-0.072-0.008M40.68 353.352C19.056 353.344 1.528 336.072 1.52 314.76V121.84C1.52 58.008 54.192 6.096 118.96 6.096h223.024c21.656 0 39.176 17.288 39.176 38.592 0 21.272-17.52 38.56-39.176 38.56H118.96c-21.576 0-39.16 17.336-39.16 38.592v192.912c0.008 21.304-17.504 38.592-39.12 38.6m939.584 0c-21.624 0.008-39.168-17.272-39.176-38.584V121.84c0-21.272-17.48-38.592-39.096-38.592H686.144c-21.616 0.008-39.152-17.256-39.168-38.56 0-21.312 17.544-38.592 39.168-38.592h215.848c64.72 0 117.424 51.912 117.424 115.744v192.912c0.008 21.304-17.512 38.584-39.128 38.592l-0.024 0.008" p-id="9251" fill="#15a0ac"></path><path d="M848.136 785.44c-5.12 65.984-75.848 70.752-90.592 70.752H262.48l-0.528-0.024c-12.256-0.696-53.808-5.824-73.688-42.72-8.52-15.776-15.376-41.88 0.392-76.56 21.376-46.92 67.84-65.288 104.648-66.888 81.768-12.672 109.584-39.464 109.864-39.72l2.76-2.8c3.304-3.08 5.816-9.336 7.208-17.736-59.136-49.408-95.488-137.056-95.488-231.768 0-72.96 21.856-132.296 63.2-171.608 34.352-32.64 80.968-50.632 131.264-50.632 50.312 0 96.944 17.992 131.288 50.64 41.344 39.304 63.2 98.648 63.2 171.6 0 94.704-36.336 182.336-95.44 231.744 1.92 11.64 5.496 16.2 7.16 17.76l0.832 0.824 2.304 2.44c2.712 2.512 31.184 27.184 109.568 39.296 29.008 1.496 71.928 17.472 99.184 57.92 15.16 22.48 18.848 42.128 17.928 57.48" p-id="9252" fill="#15a0ac"></path></svg>