<svg t="1695380492125" class="icon" viewBox="0 0 1024 1024" version="1.1" xmlns="http://www.w3.org/2000/svg" p-id="30275" width="32" height="32"><path d="M512 512m-512 0a512 512 0 1 0 1024 0 512 512 0 1 0-1024 0Z" fill="#FFE2D5" p-id="30276"></path><path d="M473.216 514.9184c63.2064 0 114.7392-51.5328 114.7392-116.5824 0-63.1808-49.0752-116.5824-114.7392-116.5824-65.6384-0.6144-114.1248 50.944-114.1248 115.968 4.3008 68.096 53.376 117.1968 114.1248 117.1968z m93.2608 27.6224c-14.08-4.9152-30.0544-9.216-46.6176-9.216h-93.2608c-79.1552 0-144.8192 67.5072-144.8192 149.7088v11.6736c0 34.9696 65.664 34.9696 144.8192 34.9696h121.472c-23.296-23.296-37.4272-51.5328-37.4272-86.528 2.4576-41.728 25.7792-79.1296 55.8336-100.608z" fill="#FF590E" p-id="30277"></path><path d="M638.8992 535.808c-54.016 0-100.6336 46.592-100.6336 103.0656 0 55.808 46.6176 103.0656 100.608 103.0656 54.016 0 100.6336-44.16 100.6336-103.0656 0-58.9056-46.6176-103.0912-100.608-103.0912z m65.6384 119.0144h-49.0752v49.0752c0 6.7584-6.7584 14.1312-14.1312 14.1312h-6.7328c-6.7584 0-14.1056-6.7584-14.1056-14.1312V654.848H571.392c-6.7584 0-14.1056-6.7584-14.1056-14.1056v-6.7584c0-6.7584 6.7328-14.1056 14.1056-14.1056h49.1008v-49.1008c0-6.7328 6.7328-14.08 14.08-14.08h6.7584c6.7584 0 14.1312 6.7328 14.1312 14.08v49.1008h49.0752c6.7584 0 14.1056 6.7328 14.1056 14.1056v6.7584c0 9.8048-4.8896 14.1056-14.08 14.1056z" fill="#FF590E" p-id="30278"></path></svg>