<svg t="1694499949860" class="icon" viewBox="0 0 1024 1024" version="1.1" xmlns="http://www.w3.org/2000/svg"
	p-id="32730" width="32" height="32">
	<path
		d="M107.52 0m35.84 0l0 0q35.84 0 35.84 35.84l0 199.68q0 35.84-35.84 35.84l0 0q-35.84 0-35.84-35.84l0-199.68q0-35.84 35.84-35.84Z"
		fill="#949bb8" p-id="32731"></path>
	<path
		d="M107.52 271.36m0-35.84l0 0q0-35.84 35.84-35.84l199.68 0q35.84 0 35.84 35.84l0 0q0 35.84-35.84 35.84l-199.68 0q-35.84 0-35.84-35.84Z"
		fill="#949bb8" p-id="32732"></path>
	<path
		d="M151.72608 267.78624V148.20352C244.23936 56.576 371.51232 0 512 0c282.76736 0 512 229.23264 512 512s-229.23264 512-512 512S0 794.76736 0 512h76.8c0 240.35328 194.84672 435.2 435.2 435.2s435.2-194.84672 435.2-435.2-194.84672-435.2-435.2-435.2c-149.8368 0-281.984 75.7248-360.27392 190.98624z"
		fill="#949bb8" p-id="32733"></path>
	<path d="M38.4 514.56m-38.4 0a38.4 38.4 0 1 0 76.8 0 38.4 38.4 0 1 0-76.8 0Z" fill="#949bb8" p-id="32734"></path>
	<path
		d="M512 752.64c-132.89984 0-240.64-107.74016-240.64-240.64s107.74016-240.64 240.64-240.64 240.64 107.74016 240.64 240.64-107.74016 240.64-240.64 240.64z m0-76.8c90.48576 0 163.84-73.35424 163.84-163.84 0-90.48576-73.35424-163.84-163.84-163.84-90.48576 0-163.84 73.35424-163.84 163.84 0 90.48576 73.35424 163.84 163.84 163.84z"
		fill="#949bb8" p-id="32735"></path>
</svg>