<?xml version="1.0" standalone="no"?>
<!DOCTYPE svg PUBLIC "-//W3C//DTD SVG 1.1//EN" "http://www.w3.org/Graphics/SVG/1.1/DTD/svg11.dtd"><svg t="1692522999543"
	class="icon" viewBox="0 0 1024 1024" version="1.1" xmlns="http://www.w3.org/2000/svg" p-id="14553"
	xmlns:xlink="http://www.w3.org/1999/xlink" width="32" height="32">
	<path
		d="M512 64C264.533333 64 64 234.666667 64 445.866667c0 204.8 226.133333 339.2 268.8 362.666666-2.133333 21.333333-19.2 76.8-36.266667 121.6-2.133333 8.533333 0 17.066667 4.266667 23.466667 4.266667 4.266667 8.533333 6.4 14.933333 6.4 2.133333 0 6.4 0 8.533334-2.133333 27.733333-12.8 153.6-70.4 192-130.133334C761.6 825.6 960 654.933333 960 445.866667 960 234.666667 759.466667 64 512 64z m85.333333 469.333333H341.333333c-12.8 0-21.333333-8.533333-21.333333-21.333333s8.533333-21.333333 21.333333-21.333333h256c12.8 0 21.333333 8.533333 21.333334 21.333333s-10.666667 21.333333-21.333334 21.333333z m85.333334-128H341.333333c-12.8 0-21.333333-8.533333-21.333333-21.333333s8.533333-21.333333 21.333333-21.333333h341.333334c12.8 0 21.333333 8.533333 21.333333 21.333333s-8.533333 21.333333-21.333333 21.333333z"
		fill="#909090" p-id="14554"></path>
</svg>