<svg t="1694500357859" class="icon" viewBox="0 0 1024 1024" version="1.1" xmlns="http://www.w3.org/2000/svg"
	p-id="37489" width="32" height="32">
	<path
		d="M768 128a85.333333 85.333333 0 0 1 85.333333 85.333333v384a298.666667 298.666667 0 0 1-298.666666 298.666667H256a85.333333 85.333333 0 0 1-85.333333-85.333333V213.333333a85.333333 85.333333 0 0 1 85.333333-85.333333h512z m0 64H256a21.333333 21.333333 0 0 0-21.333333 21.333333v597.333334a21.333333 21.333333 0 0 0 21.333333 21.333333h298.666667a234.666667 234.666667 0 0 0 234.666666-234.666667V213.333333a21.333333 21.333333 0 0 0-21.333333-21.333333zM522.666667 512a32 32 0 1 1 0 64h-149.333334a32 32 0 1 1 0-64h149.333334z m128-149.333333a32 32 0 1 1 0 64h-277.333334a32 32 0 0 1 0-64h277.333334z"
		fill="#e4827d" p-id="37490"></path>
</svg>