<?xml version="1.0" standalone="no"?><!DOCTYPE svg PUBLIC "-//W3C//DTD SVG 1.1//EN" "http://www.w3.org/Graphics/SVG/1.1/DTD/svg11.dtd"><svg t="1693037300744" class="icon" viewBox="0 0 1024 1024" version="1.1" xmlns="http://www.w3.org/2000/svg" p-id="1258" xmlns:xlink="http://www.w3.org/1999/xlink" width="32" height="32"><path d="M224 608c-52.928 0-96-43.072-96-96s43.072-96 96-96c52.928 0 96 43.072 96 96S276.928 608 224 608z" p-id="1259" fill="#515151"></path><path d="M512 608c-52.928 0-96-43.072-96-96s43.072-96 96-96c52.928 0 96 43.072 96 96S564.928 608 512 608z" p-id="1260" fill="#515151"></path><path d="M800 608c-52.928 0-96-43.072-96-96s43.072-96 96-96c52.928 0 96 43.072 96 96S852.928 608 800 608z" p-id="1261" fill="#515151"></path></svg>