<svg t="1691561250694" class="icon" viewBox="0 0 1024 1024" version="1.1"
					xmlns="http://www.w3.org/2000/svg" p-id="5673" width="32" height="32">
					<path
						d="M512.853333 988.330667c29.525333 0.170667 58.026667-11.434667 79.018667-32.256 20.992-20.821333 32.938667-49.152 32.938667-78.677334H400.896c0.341333 61.610667 50.346667 111.274667 111.957333 110.933334zM193.194667 500.736v4.949333c0 43.178667-13.312 84.309333-36.010667 121.856-8.021333 13.312-16.554667 25.088-24.917333 35.157334-4.949333 5.973333-8.533333 9.728-10.24 11.434666l-3.242667 3.584c-59.904 78.336-20.992 154.965333 78.336 154.965334H829.44c99.498667 0 134.997333-74.752 74.069333-152.576l-1.706666-2.218667-2.048-1.877333c-4.096-3.754667-7.850667-7.850667-11.434667-11.946667-10.069333-11.264-19.285333-23.381333-27.477333-36.010667-24.576-37.888-39.253333-78.848-39.253334-121.002666 0-2.389333 0-4.608 0.170667-6.997334v-76.458666c0-131.584-84.309333-257.706667-188.757333-282.282667-8.362667-60.757333-61.44-107.52-125.44-107.52-69.802667 0-111.104 47.445333-124.928 107.008-113.322667 48.128-189.098667 158.378667-189.098667 282.794667v63.658666c-0.341333 3.584-0.341333 6.826667-0.341333 13.482667z m65.536-72.192c0-105.130667 67.072-197.461333 165.546666-232.106667l21.845334-7.68V159.914667c0-32.938667 27.306667-60.074667 61.098666-60.074667 33.792 0 60.928 26.965333 60.928 60.074667v28.842666l21.845334 7.68c98.474667 34.474667 165.546667 126.976 165.546666 232.106667l0.170667 76.8-0.170667 7.509333c0 56.490667 18.773333 109.568 49.664 157.696 18.432 28.501333 36.864 49.493333 49.834667 61.44l-3.754667-4.096c27.989333 36.181333 22.186667 48.64-22.357333 48.64H197.12c-45.226667 0-53.248-15.872-26.112-51.882666l-3.242667 3.754666c11.946667-11.776 29.013333-32.256 45.738667-60.586666 28.16-47.445333 45.056-100.010667 45.056-156.672V493.909333l0.170667-65.365333z m0 0"
						p-id="5674" fill="#515151"></path>
				</svg>