<svg t="1694500207092" class="icon" viewBox="0 0 1024 1024" version="1.1" xmlns="http://www.w3.org/2000/svg"
	p-id="36458" width="32" height="32">
	<path
		d="M241.0528 479.11893333c0 0 0 0 0 0 0 30.0992 24.40106667 54.50026667 54.50026667 54.50026667 30.0992 0 54.50026667-24.40106667 54.50026666-54.50026667 0 0 0 0 0 0 0 0 0 0 0 0 0-30.0992-24.40106667-54.50026667-54.50026666-54.50026666-30.0992 0-54.50026667 24.40106667-54.50026667 54.50026666s0 0 0 0z"
		fill="#f6e382" p-id="36459"></path>
	<path
		d="M456.464 479.11893333c0 0 0 0 0 0 0 30.0992 24.40106667 54.50026667 54.50026667 54.50026667 30.0992 0 54.50026667-24.40106667 54.50026666-54.50026667 0 0 0 0 0 0 0 0 0 0 0 0 0-30.0992-24.40106667-54.50026667-54.50026666-54.50026666-30.0992 0-54.50026667 24.40106667-54.50026667 54.50026666s0 0 0 0z"
		fill="#f6e382" p-id="36460"></path>
	<path
		d="M671.8752 479.11893333c0 30.0992 24.40106667 54.50026667 54.50026667 54.50026667s54.50026667-24.40106667 54.50026666-54.50026667c0-30.0992-24.40106667-54.50026667-54.50026666-54.50026666-30.0992 0-54.50026667 24.40106667-54.50026667 54.50026666z"
		fill="#f6e382" p-id="36461"></path>
	<path
		d="M916.80213333 326.36373333c-22.39466667-46.3456-54.24106667-88.0288-94.8896-123.6288-82.72106667-72.62293333-192.36906667-112.496-308.74773333-112.496-116.5088 0-226.15573333 40.00106667-308.74773333 112.496-40.64853333 35.6-72.49386667 77.15413333-94.8896 123.6288-23.30133333 48.416-35.08266667 99.80906667-35.08266667 152.75626667 0 62.1376 16.95893333 123.88693333 48.93333333 178.77546667 27.9616 47.89866667 67.5744 90.74666667 115.0848 124.66453333v128.8064c0 11.1328 5.9552 21.36 15.53386667 26.92693333 4.7904 2.71786667 10.2272 4.14293333 15.53386667 4.14293334s10.74453333-1.42293333 15.53386666-4.14293334l136.31466667-78.70826666c30.03413333 5.696 60.9728 8.544 91.78346667 8.544 116.5088 0 226.15573333-40.00106667 308.74773333-112.496 40.64853333-35.6 72.49386667-77.15413333 94.8896-123.6288 23.30133333-48.416 35.08266667-99.80906667 35.08266667-152.75626667 0.13013333-53.07626667-11.78026667-104.46933333-35.08266667-152.88426667zM513.1648 805.98933333c-30.5504 0-61.10186667-3.23733333-90.61866667-9.57866666-7.50826667-1.55306667-15.4048-0.38826667-22.0064 3.49546666l-99.9392 57.73653334v-91.39413334c0-10.48533333-5.30773333-20.19413333-13.9808-26.02026666-95.40693333-62.52693333-150.1664-157.67466667-150.1664-261.10826667 0-180.20053333 168.9376-326.74133333 376.7104-326.74133333 207.64373333 0 376.7104 146.54186667 376.7104 326.74133333s-169.06666667 326.87146667-376.7104 326.87146667z"
		fill="#f6e382" p-id="36462"></path>
</svg>