<svg t="1695366256054" class="icon" viewBox="0 0 1024 1024" version="1.1" xmlns="http://www.w3.org/2000/svg" p-id="9358"
	width="32" height="32">
	<path
		d="M273.261714 963.584a32.182857 32.182857 0 0 1-29.988571-44.617143c16.749714-41.325714 32.182857-87.844571 35.84-108.251428a39.789714 39.789714 0 0 1-4.608-17.627429c0-17.846857 14.482286-32.402286 32.329143-32.402286 12.288 0 23.625143 6.070857 30.500571 16.237715 5.851429 8.557714 14.555429 21.504-4.022857 83.456l-1.609143 5.266285 4.827429-2.706285c58.075429-32.914286 96.402286-63.195429 102.692571-80.896a31.451429 31.451429 0 0 1 36.132572-20.406858 14.921143 14.921143 0 0 0 2.998857-0.512c1.170286-0.292571 2.340571-0.658286 3.437714-0.658285 229.961143 0 417.060571-156.013714 417.060571-347.867429C898.852571 220.891429 711.68 64.731429 481.792 64.731429S64.731429 220.891429 64.731429 412.598857c0 103.277714 57.417143 201.508571 157.476571 269.385143a32.475429 32.475429 0 0 1-36.352 53.613714C67.730286 655.433143 0 537.673143 0 412.598857 0 185.124571 216.137143 0 481.792 0c265.654857 0 481.792 185.051429 481.792 412.598857 0 223.597714-212.48 408.502857-473.673143 412.306286h-1.097143l-0.658285 0.877714c-43.227429 61.147429-165.376 118.784-201.874286 135.021714a32.402286 32.402286 0 0 1-13.019429 2.779429z m66.779429-446.902857c-18.066286 0-32.841143-12.507429-32.841143-27.940572 0-15.36 14.774857-27.867429 32.914286-27.867428h213.577143c18.066286 0 32.841143 12.434286 32.841142 27.867428 0 15.36-14.774857 27.940571-32.841142 27.940572H340.114286z m0.292571-125.659429c-18.285714 0-33.133714-12.507429-33.133714-27.940571 0-15.36 14.848-27.940571 33.133714-27.940572H623.177143c18.285714 0 33.133714 12.580571 33.133714 27.940572 0 15.36-14.848 27.940571-33.133714 27.940571H340.333714z"
		fill="#d9ba43" p-id="9359"></path>
</svg>