<svg t="1694499852058" class="icon" viewBox="0 0 1024 1024" version="1.1" xmlns="http://www.w3.org/2000/svg" p-id="29133" width="32" height="32"><path d="M717.88544 353.50528l0.47104-0.512 89.86624-89.86624a95.80544 95.80544 0 1 0-135.43424-135.53664 32.768 32.768 0 1 1-46.3872-46.24384A161.34144 161.34144 0 1 1 854.56896 309.4528l-89.9072 89.9072-0.98304 0.94208-363.95008 363.99104c-0.43008 0.4096-0.83968 0.79872-1.29024 1.18784a32.768 32.768 0 0 1-14.336 9.37984l-269.824 88.064a32.768 32.768 0 0 1-41.30816-41.30816l88.064-269.78304a32.29696 32.29696 0 0 1 9.3184-14.336l1.24928-1.3312L535.552 172.21632a61.2352 61.2352 0 0 1 86.71232 0.28672l85.25824 85.25824a32.768 32.768 0 0 1-46.32576 46.32576l-82.432-82.432-337.69472 337.69472 135.49568 135.49568 340.80768-340.82816 0.47104-0.512z m-509.952 265.4208l-52.65408 161.66912 161.66912-52.71552-108.9536-108.99456zM987.38176 963.7888c0 16.0768-12.65664 29.12256-27.99616 29.12256H62.464c-15.4624 0-27.99616-13.12768-27.99616-29.12256S47.104 934.66624 62.464 934.66624h896.9216c15.33952 0 27.99616 13.04576 27.99616 29.12256z m0 0" p-id="29134" fill="#e4827d"></path></svg>