<svg t="1695380590061" class="icon" viewBox="0 0 1024 1024" version="1.1" xmlns="http://www.w3.org/2000/svg" p-id="41311" width="32" height="32"><path d="M401.6 516.8h220.8v54.4H401.6zM401.6 625.6h220.8v54.4H401.6z" fill="#A5D4CF" p-id="41312"></path><path d="M512 0C228.8 0 0 228.8 0 512s228.8 512 512 512 512-228.8 512-512S795.2 0 512 0z m220.8 736c0 30.4-25.6 54.4-54.4 54.4H347.2c-30.4 0-54.4-25.6-54.4-54.4V296c0-30.4 25.6-54.4 54.4-54.4h220.8l164.8 164.8V736z" fill="#A5D4CF" p-id="41313"></path><path d="M539.2 433.6h152l-152-152z" fill="#A5D4CF" p-id="41314"></path></svg>