<?xml version="1.0" standalone="no"?>
<!DOCTYPE svg PUBLIC "-//W3C//DTD SVG 1.1//EN" "http://www.w3.org/Graphics/SVG/1.1/DTD/svg11.dtd"><svg t="1693150496148"
	class="icon" viewBox="0 0 1024 1024" version="1.1" xmlns="http://www.w3.org/2000/svg" p-id="5045"
	xmlns:xlink="http://www.w3.org/1999/xlink" width="32" height="32">
	<path
		d="M924.014 428.067c27.353-27.569 42.469-58.826 42.469-92.413 0-119.063-189.881-208.842-441.673-208.842-251.793 0-441.674 89.781-441.674 208.842 0 33.589 15.118 64.848 42.473 92.418-34.788 34.978-42.473 69.222-42.473 92.602 0 33.38 14.932 64.459 41.969 91.903-34.363 34.804-41.969 68.83-41.969 92.092 0 119.053 189.881 208.834 441.674 208.834 251.791 0 441.672-89.781 441.671-208.833 0-32.574-14.462-64.217-41.962-92.099 27.033-27.443 41.962-58.519 41.962-91.896 0.001-32.773-14.641-64.591-42.467-92.608zM524.811 190.356c217.823 0 380.596 76.709 380.596 145.296 0 68.579-162.773 145.288-380.596 145.288-217.826 0-380.597-76.708-380.597-145.288 0-68.586 162.771-145.296 380.597-145.296z m0 354.13c145.178 0 269.77-29.849 349.255-77.944a31.477 31.477 0 0 0 1.874 1.85c19.548 17.623 29.465 35.217 29.465 52.282 0 68.579-162.773 145.281-380.596 145.281-217.826 0-380.597-76.702-380.597-145.281 0-21.782 16.762-41.112 30.838-53.493 0.212-0.186 0.412-0.381 0.617-0.572 79.489 48.057 204.033 77.877 349.144 77.877z m-0.002 305.472c-217.826 0-380.597-76.708-380.597-145.288 0-17.472 10.365-35.455 30.793-53.444 79.46 48.289 204.294 78.273 349.807 78.273 145.549 0 270.411-30 349.867-78.31 0.408 0.411 0.827 0.815 1.262 1.207 19.548 17.617 29.465 35.208 29.465 52.275-0.001 68.578-162.774 145.287-380.597 145.287z"
		p-id="5046" fill="#90c9b4"></path>
</svg>