<svg t="1694498000596" class="icon" viewBox="0 0 1024 1024" version="1.1" xmlns="http://www.w3.org/2000/svg"
	p-id="10984" width="32" height="32">
	<path
		d="M256 183.296c20.48 0 36.864-16.384 36.864-36.864V36.864C292.864 16.384 276.48 0 256 0s-36.864 16.384-36.864 36.864v109.568c1.024 20.48 17.408 36.864 36.864 36.864z m110.592-36.864H440.32c20.48 0 36.864-16.384 36.864-36.864S460.8 72.704 440.32 72.704h-73.728c-20.48 0-36.864 16.384-36.864 36.864s16.384 36.864 36.864 36.864z m183.296 804.864h-440.32c-20.48 0-36.864-16.384-36.864-36.864V183.296c0-20.48 16.384-36.864 36.864-36.864h36.864c20.48 0 36.864-16.384 36.864-36.864s-16.384-36.864-36.864-36.864h-36.864C49.152 73.728 0 121.856 0 183.296v731.136C0 974.848 49.152 1024 109.568 1024h439.296c20.48 0 36.864-16.384 36.864-36.864s-16.384-35.84-35.84-35.84z m0-768c20.48 0 36.864-16.384 36.864-36.864V36.864c0-20.48-16.384-36.864-36.864-36.864s-36.864 16.384-36.864 36.864v109.568c0 20.48 16.384 36.864 36.864 36.864z m372.736 231.424l-24.576 68.608 101.376 36.864 24.576-68.608-101.376-36.864z m-174.08 480.256l11.264 125.952L849.92 931.84l137.216-379.904-101.376-36.864-137.216 379.904z m57.344-419.84V183.296C805.888 122.88 756.736 73.728 696.32 73.728h-36.864c-20.48 0-36.864 16.384-36.864 36.864s16.384 36.864 36.864 36.864H696.32c20.48 0 36.864 16.384 36.864 36.864v292.864c0 20.48 16.384 36.864 36.864 36.864 19.456-2.048 35.84-18.432 35.84-38.912z m-185.344-81.92H583.68v-36.864c0-20.48-16.384-36.864-36.864-36.864s-36.864 16.384-36.864 36.864v36.864h-36.864c-20.48 0-36.864 16.384-36.864 36.864s16.384 36.864 36.864 36.864h36.864v36.864c0 20.48 16.384 36.864 36.864 36.864s36.864-16.384 36.864-36.864v-36.864h36.864c20.48 0 36.864-16.384 36.864-36.864s-16.384-36.864-36.864-36.864z m-343.04 43.008c-4.096 6.144-8.192 14.336-12.288 24.576-4.096 10.24-7.168 18.432-10.24 25.6l-97.28 244.736c-4.096 10.24-7.168 17.408-8.192 22.528-2.048 5.12-3.072 11.264-3.072 16.384 0 9.216 4.096 17.408 11.264 23.552 7.168 7.168 16.384 10.24 25.6 10.24 11.264 0 19.456-3.072 24.576-10.24 5.12-6.144 11.264-19.456 18.432-37.888l18.432-48.128H399.36l18.432 47.104c2.048 6.144 5.12 12.288 8.192 20.48 3.072 7.168 6.144 13.312 9.216 17.408 3.072 4.096 6.144 6.144 11.264 9.216 4.096 2.048 9.216 3.072 15.36 3.072 10.24 0 19.456-4.096 26.624-11.264 7.168-7.168 11.264-15.36 11.264-23.552 0-8.192-4.096-21.504-11.264-39.936L389.12 485.376c-5.12-12.288-8.192-21.504-11.264-28.672-3.072-7.168-7.168-14.336-11.264-20.48-4.096-6.144-10.24-11.264-17.408-15.36-7.168-4.096-16.384-6.144-26.624-6.144s-19.456 2.048-26.624 6.144c-8.192 3.072-13.312 9.216-18.432 15.36z m44.032 58.368L378.88 650.24H265.216l56.32-155.648z"
		fill="#ffffff" p-id="10985"></path>
</svg>