<svg t="1695199098827" class="icon" viewBox="0 0 1024 1024" version="1.1" xmlns="http://www.w3.org/2000/svg" p-id="16101" width="32" height="32"><path d="M25.187811 462.078656C39.033522 214.318439 239.601317 13.653138 486.09397 0.879983 775.0013-14.087036 1012.620997 223.825177 998.872791 514.048824c-12.041868 255.901886-223.188956 461.491189-478.018287 466.122676a485.67243 485.67243 0 0 1-138.554612-17.453396 41.09836 41.09836 0 0 0-26.862629 1.462575l-135.921977 56.699161a40.805845 40.805845 0 0 1-56.357892-37.880695v-134.313144a41.927152 41.927152 0 0 0-11.066819-28.032689A489.816393 489.816393 0 0 1 25.187811 462.078656z m652.210979-5.167765h48.752502a58.990528 58.990528 0 1 0 0-117.932304h-16.527098l3.412675-12.334383a59.088033 59.088033 0 0 0-41.195864-72.592476 58.503003 58.503003 0 0 0-44.60854 5.65529 58.990528 58.990528 0 0 0-27.593917 35.735585l-11.846858 43.487232h-67.912236l3.363923-12.383136a59.088033 59.088033 0 0 0-41.147112-72.543723 58.503003 58.503003 0 0 0-44.657292 5.65529 58.990528 58.990528 0 0 0-27.545164 35.686832l-11.895611 43.535984H345.686763a58.990528 58.990528 0 0 0-58.795518 59.088033c0 32.615424 26.326351 59.088033 58.795518 59.088034h20.232288l-20.476051 75.176358h-47.679947A58.990528 58.990528 0 0 0 238.918782 591.32154c0 32.664177 26.326351 59.088033 58.795518 59.088033h15.503296l-2.242615 8.190421a59.088033 59.088033 0 0 0 56.69916 74.640081 58.893023 58.893023 0 0 0 56.650408-43.487232l10.725551-39.392022h67.912236l-2.193863 8.19042a59.088033 59.088033 0 0 0 56.699161 74.640082 58.893023 58.893023 0 0 0 56.650408-43.535985l10.72555-39.34327h53.38399a58.990528 58.990528 0 0 0 58.795518-59.088033c0-32.664177-26.326351-59.088033-58.795518-59.088033h-21.256091l20.476051-75.225111z" fill="#0BCDAF" p-id="16102"></path><path d="M467.226752 532.08725h67.863483l20.524804-75.176359H487.65405l-20.476051 75.127606z" fill="#FCB138" p-id="16103"></path><path d="M486.09397 0.879983C239.601317 13.653138 39.033522 214.318439 25.187811 462.078656a490.693938 490.693938 0 0 0 34.85804 211.975881 609.113766 609.113766 0 0 0 238.399737-23.839974h-0.731288A58.990528 58.990528 0 0 1 238.918782 591.12653c0-32.615424 26.326351-59.039281 58.795518-59.03928h47.679948l20.476051-75.225112h-20.232289a58.990528 58.990528 0 0 1-58.795518-59.088033c0-32.664177 26.326351-59.088033 58.795518-59.088033h52.360188l11.895611-43.535984a58.990528 58.990528 0 0 1 27.545164-35.686832 58.503003 58.503003 0 0 1 44.657292-5.65529c31.250354 8.629193 49.727553 41.09836 41.147112 72.592476l-3.412675 12.334383h67.912236l11.89561-43.487232a58.990528 58.990528 0 0 1 27.593917-35.735585 58.503003 58.503003 0 0 1 68.936038 7.946658c23.206191-65.864631 35.053049-135.288194 35.004297-205.15053 0-3.363923-0.19501-6.63034-0.243762-9.848006A484.50237 484.50237 0 0 0 486.09397 0.879983z" fill="#FCB138" p-id="16104"></path></svg>