<svg t="1695198964790" class="icon" viewBox="0 0 1024 1024" version="1.1" xmlns="http://www.w3.org/2000/svg" p-id="14861" width="32" height="32"><path d="M123.56266667 844.91377778l41.18755555-117.19111111c0.22755555-0.4551111 0.22755555-1.13777777 0-1.59288888-69.97333332-139.94666667-62.46400001-305.94844449 19.91111112-438.95466668 82.37511111-133.00622223 227.78311111-214.12977776 384.56888887-214.47111112l6.03022225-0.11377777c7.50933333 0.11377779 14.9048889 0.4551111 22.30044444 0.91022223-43.80444446-14.44977779-89.77066668-22.18666668-136.19200003-22.75555555l-6.0302222 0.11377779c-156.78577778 0.22755555-302.19377778 81.3511111-384.56888891 214.47111109C-11.60533333 398.33599998-19.11466667 564.33777778 50.85866666 704.28444445c0.22755555 0.5688889 0.22755555 1.13777777 3e-8 1.59288888l-41.18755556 117.19111112c-7.73688889 21.84533333-3.07200001 46.19377778 11.94666665 63.82933334 15.13244446 17.63555556 38.57066669 25.82755556 61.43999999 21.61777778l45.96622224-8.87466666c-9.67111113-16.38400001-11.94666668-36.40888889-5.46133334-54.72711113zM326.31466667 905.44355556l-52.67911113 10.12622223c49.26577779 21.95911113 102.28622223 34.81599998 156.33066669 38.00177775-35.72622223-11.7191111-70.2008889-27.76177778-102.17244444-48.12799998-0.4551111-0.22755555-1.02400001-0.22755555-1.47911112 0z" fill="#9FD4FF" p-id="14862"></path><path d="M498.46044444 595.05777774h113.32266669l20.59377776-117.19111107h-113.32266667zM768.34133334 417.33688889c50.06222222 92.04622223 146.09066668 149.73155555 250.87999999 150.98311112 0.91022222-11.26400001 1.47911113-22.41422223 1.5928889-33.56444446-0.22755555 10.69511113-0.91022222 21.39022222-1.93422224 32.08533334-102.85511111-0.5688889-197.29066667-57.57155555-246.21511109-148.70755557-48.58311114-90.33955555-44.94222224-199.90755556 9.32977778-286.83377778-1.36533333-0.68266667-2.6168889-1.59288889-3.98222223-2.27555556-17.63555556 27.42044446-30.15111113 57.23022223-37.54666667 88.06400002-15.01866667 66.90133332-5.91644445 138.01244446 27.87555554 200.24888889z" fill="#c1e950" p-id="14863"></path><path d="M1019.22133333 568.32000001c-104.78933331-1.25155553-200.93155555-58.93688886-250.88000001-150.98311112-33.79200001-62.23644446-42.89422223-133.34755555-27.87555554-200.24888889 7.28177778-32.65422223 20.25244445-64.28444446 38.91199999-93.29777779-56.43377779-29.35466667-118.3288889-46.42133333-181.70311114-50.28977776-7.39555559-0.4551111-14.9048889-0.79644446-22.3004444-0.91022223l-6.03022223 0.11377777c-156.78577778 0.22755555-302.19377778 81.3511111-384.56888889 214.47111112-82.37511111 133.00622223-89.88444445 299.12177779-19.91111114 438.95466668 0.22755555 0.5688889 0.22755555 1.13777777 4e-8 1.59288888l-41.18755557 117.19111111c-6.48533335 18.31822223-4.20977779 38.34311113 5.57511112 54.72711113 1.93422223 3.18577778 3.98222223 6.2577778 6.37155555 9.10222222 15.13244446 17.63555556 38.57066669 25.82755556 61.43999999 21.61777777l76.68622223-14.79111111 52.67911113-10.12622225c0.4551111-0.22755555 1.02400001-0.22755555 1.4791111 0 31.97155556 20.48 66.44622222 36.40888889 102.17244443 48.12800002 45.056 14.79111111 92.2737778 22.75555555 140.06044447 22.86933333 13.53955556 0 27.64800001-0.5688889 41.8702222-1.82044444C827.9608889 955.05066667 999.53777779 785.29422222 1020.92800001 570.02666668v-1.59288892c-0.5688889 0-1.13777777-0.11377779-1.70666668-0.11377777z m-632.83199998 72.47644444l0.34133333-0.11377779c-14.56355554 0.11377779-26.624-11.49155556-26.96533335-26.05511111-0.34133334-6.82666667 2.1617778-13.4257778 6.94044446-18.31822221 4.6648889-4.89244444 11.26400001-7.73688889 18.09066666-7.73688888h1.59288885c14.44977779 0 26.16888889 11.7191111 26.16888892 26.05511109 0 14.44977779-11.7191111 26.16888889-26.16888892 26.1688889z m360.67555552-0.11377779H656.49777777l-12.51555555 71.79377779c-2.50311111 14.22222223-16.04266669 23.66577779-30.2648889 21.16266666-14.22222223-2.50311111-23.66577779-16.04266669-21.16266665-30.15111112l11.15022224-62.23644443H489.69955555l-12.51555556 71.79377778c-2.50311111 14.22222223-16.04266669 23.66577779-30.26488888 21.16266667-14.22222223-2.50311111-23.66577779-16.04266669-21.16266666-30.15111114l40.95999999-231.65155554h-81.57866667c-14.44977779 0-26.16888889-11.7191111-26.1688889-26.05511112 0-14.44977779 11.7191111-26.05511113 26.1688889-26.05511112h90.56711113l12.51555556-71.79377777c2.50311111-14.22222223 16.04266669-23.66577779 30.26488885-21.04888887 14.22222223 2.50311111 23.66577779 16.04266669 21.1626667 30.15111109l-11.15022222 62.23644446h114.00533334l12.51555553-71.79377779c0.4551111-2.38933334 1.36533333-4.6648889 2.38933334-6.71288888 1.59288889-2.27555555 3.18577778-4.55111111 5.00622222-7.05422222 5.91644445-5.80266668 14.44977779-8.87466667 23.21066667-7.28177778h0.68266665c14.22222223 2.50311111 23.77955556 16.04266669 21.16266668 30.26488888l-15.24622221 82.94400002c-2.048 7.05422222-2.048 13.76711113-3.52711111 19.68355555l-22.86933335 128.91022221h81.35111111c14.44977779 0 26.16888889 11.7191111 26.1688889 26.05511112-0.11377779 14.10844445-11.83288889 25.82755556-26.28266662 25.82755555z m0.68266668-168.95999999h-2.73066666c-14.44977779 0-26.16888889-11.7191111-26.16888889-26.05511113 0-14.44977779 11.7191111-26.05511113 26.16888889-26.05511109h2.73066666c14.44977779 0 26.16888889 11.7191111 26.16888892 26.05511111 0 14.44977779-11.7191111 26.05511113-26.16888892 26.05511111z" fill="#00cebd" p-id="14864"></path><path d="M772.55111111 418.13333332c49.03822227 91.13600001 143.35999998 148.13866667 246.21511111 148.70755557 1.02400001-10.69511113 1.59288889-21.50400001 1.93422224-32.08533334 4.32355555-168.84622223-87.04000001-326.88355554-237.45422222-405.61777778-0.4551111 0.79644446-0.91022222 1.47911113-1.36533335 2.27555557-54.15822222 86.69866667-57.9128889 196.38044445-9.32977778 286.71999998z" fill="#c1e950" p-id="14865"></path></svg>