<svg t="1695199527474" class="icon" viewBox="0 0 1024 1024" version="1.1" xmlns="http://www.w3.org/2000/svg" p-id="8817" width="32" height="32"><path d="M170.6 804.6l36.2-103c0.2-0.4 0.2-1 0-1.4-61.5-123-54.9-268.9 17.5-385.8 72.4-116.9 200.2-188.2 338-188.5l5.3-0.1c6.6 0.1 13.1 0.4 19.6 0.8-38.5-12.7-78.9-19.5-119.7-20l-5.3 0.1c-137.8 0.2-265.6 71.5-338 188.5C51.8 412.1 45.2 558 106.7 681c0.2 0.5 0.2 1 0 1.4l-36.2 103c-6.8 19.2-2.7 40.6 10.5 56.1 13.3 15.5 33.9 22.7 54 19l40.4-7.8c-8.5-14.4-10.5-32-4.8-48.1z m178.2 53.2l-46.3 8.9c43.3 19.3 89.9 30.6 137.4 33.4-31.4-10.3-61.7-24.4-89.8-42.3-0.4-0.2-0.9-0.2-1.3 0z" fill="#F58415" p-id="8818"></path><path d="M500.1 585h99.6l18.1-103h-99.6z m237.2-156.2c44 80.9 128.4 131.6 220.5 132.7 0.8-9.9 1.3-19.7 1.4-29.5-0.2 9.4-0.8 18.8-1.7 28.2-90.4-0.5-173.4-50.6-216.4-130.7-42.7-79.4-39.5-175.7 8.2-252.1-1.2-0.6-2.3-1.4-3.5-2-15.5 24.1-26.5 50.3-33 77.4-13.2 58.8-5.2 121.3 24.5 176z" fill="#FAAD14" p-id="8819"></path><path d="M957.8 561.5c-92.1-1.1-176.6-51.8-220.5-132.7-29.7-54.7-37.7-117.2-24.5-176 6.4-28.7 17.8-56.5 34.2-82-49.6-25.8-104-40.8-159.7-44.2-6.5-0.4-13.1-0.7-19.6-0.8l-5.3 0.1c-137.8 0.2-265.6 71.5-338 188.5-72.4 116.9-79 262.9-17.5 385.8 0.2 0.5 0.2 1 0 1.4l-36.2 103c-5.7 16.1-3.7 33.7 4.9 48.1 1.7 2.8 3.5 5.5 5.6 8 13.3 15.5 33.9 22.7 54 19l67.4-13 46.3-8.9c0.4-0.2 0.9-0.2 1.3 0 28.1 18 58.4 32 89.8 42.3 39.6 13 81.1 20 123.1 20.1 11.9 0 24.3-0.5 36.8-1.6C789.7 901.4 940.5 752.2 959.3 563v-1.4c-0.5 0-1-0.1-1.5-0.1z m-556.2 63.7l0.3-0.1c-12.8 0.1-23.4-10.1-23.7-22.9-0.3-6 1.9-11.8 6.1-16.1 4.1-4.3 9.9-6.8 15.9-6.8h1.4c12.7 0 23 10.3 23 22.9 0 12.7-10.3 23-23 23z m317-0.1H639l-11 63.1c-2.2 12.5-14.1 20.8-26.6 18.6-12.5-2.2-20.8-14.1-18.6-26.5l9.8-54.7H492.4l-11 63.1c-2.2 12.5-14.1 20.8-26.6 18.6-12.5-2.2-20.8-14.1-18.6-26.5l36-203.6h-71.7c-12.7 0-23-10.3-23-22.9 0-12.7 10.3-22.9 23-22.9h79.6l11-63.1c2.2-12.5 14.1-20.8 26.6-18.5 12.5 2.2 20.8 14.1 18.6 26.5l-9.8 54.7h100.2l11-63.1c0.4-2.1 1.2-4.1 2.1-5.9 1.4-2 2.8-4 4.4-6.2 5.2-5.1 12.7-7.8 20.4-6.4h0.6c12.5 2.2 20.9 14.1 18.6 26.6l-13.4 72.9c-1.8 6.2-1.8 12.1-3.1 17.3l-20.1 113.3h71.5c12.7 0 23 10.3 23 22.9-0.1 12.4-10.4 22.7-23.1 22.7z m0.6-148.5h-2.4c-12.7 0-23-10.3-23-22.9 0-12.7 10.3-22.9 23-22.9h2.4c12.7 0 23 10.3 23 22.9 0 12.7-10.3 22.9-23 22.9z" fill="#FAAD14" p-id="8820"></path><path d="M741 429.5c43.1 80.1 126 130.2 216.4 130.7 0.9-9.4 1.4-18.9 1.7-28.2 3.8-148.4-76.5-287.3-208.7-356.5-0.4 0.7-0.8 1.3-1.2 2-47.6 76.2-50.9 172.6-8.2 252z" fill="#F9D371" p-id="8821"></path></svg>