<svg t="1691561700747" class="icon" viewBox="0 0 1024 1024" version="1.1" xmlns="http://www.w3.org/2000/svg"
	p-id="43482" width="32" height="32">
	<path
		d="M497.664 0.512c-150.016 0-271.36 121.344-271.36 271.36s121.344 271.36 271.36 271.36 271.36-121.344 271.36-271.36c0-149.504-121.856-271.36-271.36-271.36z m0 471.04c-110.08 0-199.68-89.6-199.68-199.68s89.6-199.68 199.68-199.68 199.68 89.6 199.68 199.68c0 110.592-89.6 199.68-199.68 199.68zM771.584 630.784H242.176C133.632 630.784 46.08 718.336 46.08 826.88c0 108.032 87.552 196.096 196.096 196.096h529.408c108.032 0 196.096-87.552 196.096-196.096 0-108.544-88.064-196.096-196.096-196.096z m119.296 196.096c0 65.024-57.856 117.76-129.024 117.76H251.904c-71.168 0-129.024-52.736-129.024-117.76s57.856-117.76 129.024-117.76h509.952c71.168 0 129.024 52.736 129.024 117.76z"
		p-id="43483" fill="#515151"></path>
</svg>