<svg t="1695201347392" class="icon" viewBox="0 0 1024 1024" version="1.1" xmlns="http://www.w3.org/2000/svg" p-id="63426" width="32" height="32"><path d="M513.2 511m-448.2 0a448.2 448.2 0 1 0 896.4 0 448.2 448.2 0 1 0-896.4 0Z" fill="#DDCDC3" p-id="63427"></path><path d="M217.7 637.7s49.3 40.7 78-54.7c0 0 13.3 8 0-139.3 0 0-40-257.3 187.3-289.3 0 0 197.3-22.7 227.3 182.7 0 0 11.3 77.3-4 167.3 0 0-16 135.2 70.7 142 0 0 20.7 1.4 30.7-8 0 0 45.3 182-299.3 155.3-0.1 0-303.4 42.6-290.7-156z" fill="#3B2416" p-id="63428"></path><path d="M448.3 616.3v58s0 33.3-20 34l-126.7 40s188 73.3 408.7 0l-127.3-40s-15.3-1.3-17.3-41.3l0.3-50.7H448.3z" fill="#F9DAC5" p-id="63429"></path><path d="M448.3 638.3s57 24 117.5 0l0.1-22H448.3v22z" fill="#F2BC9E" p-id="63430"></path><path d="M325 407.7s-54 24 16.7 94l14.7 10.3s8 59 56 85.7c0 0 58 34.7 90 36.7s101.3-36.7 101.3-36.7 56.7-35.3 56.7-91.3c0 0 10.7 3.3 32-22 0 0 31.3-53.3 3.3-72.7l-69.3-132-256 11.3L325 407.7z" fill="#EFD2BE" p-id="63431"></path><path d="M360.3 564.3s-102-212.7 34.7-338c0 0 138.7-80.7 255.3 10.7 0 0-21.3 82-114.7 84 0 0-85.3 2.7-135.3 66.7 0 0-62 53.3-40 176.6z" fill="#3D2218" p-id="63432"></path><path d="M665 500.3s112.7-214.7-52-282.7c0 0-80.7-8.7-36.7 54" fill="#3D2218" p-id="63433"></path><path d="M396.3 426.7a22 26.3 0 1 0 44 0 22 26.3 0 1 0-44 0Z" fill="#332113" p-id="63434"></path><path d="M567.3 426.7a22 26.3 0 1 0 44 0 22 26.3 0 1 0-44 0Z" fill="#332113" p-id="63435"></path><path d="M391.7 489m-26.7 0a26.7 26.7 0 1 0 53.4 0 26.7 26.7 0 1 0-53.4 0Z" fill="#EFAB84" p-id="63436"></path><path d="M613.7 489m-26.7 0a26.7 26.7 0 1 0 53.4 0 26.7 26.7 0 1 0-53.4 0Z" fill="#EFAB84" p-id="63437"></path><path d="M506 574.2c-2.4-0.2-48.7-5.1-61-42.3h123.9c-1.3 3.5-4.8 11.4-11.7 19.3-8.6 9.7-24.4 21.6-51.2 23z" fill="#FFFFFF" p-id="63438"></path><path d="M566.7 533.3c-1.7 3.9-4.9 10.2-10.6 16.7-12.2 13.9-29 21.5-50.1 22.6-1.6-0.2-13.3-1.4-26-7-16.5-7.2-27.6-18.1-32.9-32.3h119.6m4.3-3H443c12 41.3 63 45.3 63 45.3 53-2.6 65-45.3 65-45.3z" fill="#CE8E5D" p-id="63439"></path><path d="M221.2 851.1c7.9-35 31-95.5 97.8-108.1 0 0 176.7 70 374.4 0 0 0 87.2 14.4 102.5 115.8C671 964 513.2 959.2 513.2 959.2S355 967 221.2 851.1z" fill="#BC641A" p-id="63440"></path></svg>