<svg t="1695200492325" class="icon" viewBox="0 0 1024 1024" version="1.1" xmlns="http://www.w3.org/2000/svg" p-id="2971" width="32" height="32"><path d="M512 512m-512 0a512 512 0 1 0 1024 0 512 512 0 1 0-1024 0Z" fill="#EBF3FF" p-id="2972"></path><path d="M367.104 491.52h296.96c-5.12 0 56.32-184.32 15.36-235.52 10.24 0 15.36 5.12 25.6 10.24-35.84-61.44-112.64-92.16-184.32-71.68 0 0 0-10.24 20.48-15.36 0 0-92.16-10.24-138.24 40.96 0-5.12 5.12-15.36 5.12-20.48-15.36 0-25.6 15.36-30.72 30.72-15.36-5.12-30.72 5.12-35.84 20.48 5.12-5.12 15.36-5.12 25.6-5.12-81.92 40.96 0 245.76 0 245.76z" fill="#040C43" p-id="2973"></path><path d="M419.6864 575.1808h189.44v261.12h-189.44z" fill="#FFC6C7" p-id="2974"></path><path d="M609.1264 575.1808v61.44c-5.12 25.6-51.2 51.2-97.28 51.2s-87.04-25.6-97.28-51.2v-61.44h194.56z" fill="#E59393" p-id="2975"></path><path d="M397.824 439.7568c-20.48-25.6-56.32-40.96-71.68-10.24s-5.12 112.64 46.08 97.28c35.84-10.24 35.84-71.68 25.6-87.04z" fill="#FFC6C7" p-id="2976"></path><path d="M382.464 490.9568s-5.12-5.12 0 0c0-25.6-15.36-40.96-30.72-51.2 0 0-5.12 0-5.12-5.12s0-5.12 5.12-5.12c20.48 10.24 35.84 30.72 30.72 61.44 5.12-5.12 0 0 0 0z" fill="#E59393" p-id="2977"></path><path d="M628.7872 439.7568c15.36-25.6 56.32-35.84 71.68-10.24s5.12 112.64-46.08 97.28c-35.84-10.24-35.84-71.68-25.6-87.04z" fill="#FFC6C7" p-id="2978"></path><path d="M644.1472 490.9568s-5.12-5.12 0 0c-5.12-30.72 10.24-51.2 30.72-61.44 0 0 5.12 0 5.12 5.12v5.12c-20.48 5.12-35.84 25.6-35.84 51.2 5.12-5.12 0 0 0 0z" fill="#E59393" p-id="2979"></path><path d="M515.584 281.6c-189.44 0-143.36 128-143.36 194.56s0 174.08 143.36 174.08 143.36-107.52 143.36-174.08 46.08-194.56-143.36-194.56z" fill="#FFC6C7" p-id="2980"></path><path d="M422.7584 433.2544c0 10.24 5.12 20.48 10.24 20.48s10.24-10.24 10.24-20.48-5.12-15.36-10.24-15.36-10.24 5.12-10.24 15.36zM453.4784 402.5344c0 5.12-20.48-5.12-30.72-5.12-20.48 0-20.48 10.24-25.6 10.24 0-10.24 10.24-20.48 25.6-20.48 15.36-5.12 25.6 0 30.72 15.36zM601.9584 433.2544c0 10.24-5.12 20.48-10.24 20.48s-15.36-10.24-15.36-20.48 5.12-15.36 15.36-15.36 10.24 5.12 10.24 15.36zM566.1184 402.5344c0 5.12 20.48-5.12 30.72-5.12 20.48 0 20.48 10.24 25.6 10.24 0-10.24-10.24-20.48-25.6-20.48-10.24-5.12-25.6 0-30.72 15.36z" fill="#040C43" p-id="2981"></path><path d="M520.0384 530.5344c-5.12 0-10.24 0-15.36-5.12-5.12 0-5.12-5.12-5.12-10.24v-15.36c0-15.36 5.12-30.72 5.12-46.08 0 0 0-5.12 5.12-5.12s5.12 0 5.12 5.12c0 15.36 0 30.72-5.12 46.08v20.48c5.12 5.12 10.24 5.12 15.36 5.12 0 0 5.12 0 5.12 5.12h-10.24c5.12 0 0 0 0 0z" fill="#E59393" p-id="2982"></path><path d="M361.984 419.84l5.12 92.16c10.24-112.64 46.08-107.52 51.2-174.08 51.2 25.6 112.64 40.96 168.96 46.08-20.48-15.36-40.96-25.6-56.32-40.96 0 0 66.56 25.6 87.04 30.72 0 35.84 35.84 40.96 40.96 133.12l5.12-92.16s35.84-143.36-148.48-143.36-153.6 148.48-153.6 148.48z" fill="#040C43" p-id="2983"></path><path d="M814.08 757.76c-51.2-25.6-168.96-20.48-204.8-40.96-10.24 35.84-35.84 66.56-76.8 76.8-51.2 10.24-102.4-20.48-112.64-76.8-40.96 20.48-153.6 15.36-204.8 40.96-30.72 15.36-56.32 51.2-71.68 102.4C230.4 957.44 358.4 1024 506.88 1024h15.36c143.36 0 276.48-66.56 368.64-163.84-20.48-51.2-51.2-87.04-76.8-102.4z" fill="#4F75D0" p-id="2984"></path><path d="M353.28 732.16c10.24 51.2 46.08 92.16 92.16 117.76l10.24 10.24c20.48 35.84 61.44 46.08 92.16 25.6 10.24-5.12 20.48-15.36 25.6-25.6l10.24-10.24c46.08-25.6 81.92-66.56 92.16-117.76h-5.12c-10.24 46.08-46.08 87.04-87.04 112.64-5.12 5.12-10.24 5.12-10.24 10.24-15.36 30.72-56.32 40.96-87.04 25.6-10.24-5.12-20.48-15.36-25.6-25.6-5.12-5.12-5.12-10.24-10.24-10.24-46.08-25.6-81.92-66.56-92.16-112.64h-5.12z" fill="#FAFAFF" p-id="2985"></path><path d="M640 727.04c-10.24 40.96-40.96 71.68-76.8 92.16-20.48 10.24-30.72 40.96-51.2 40.96s-30.72-30.72-51.2-40.96c-35.84-20.48-61.44-51.2-71.68-92.16 10.24 0 20.48-5.12 30.72-10.24 25.6 51.2 87.04 76.8 138.24 51.2 20.48-10.24 40.96-30.72 51.2-51.2 10.24 5.12 20.48 5.12 30.72 10.24z" fill="#FFC6C7" p-id="2986"></path><path d="M783.36 849.92h-5.12c5.12 30.72 10.24 61.44 10.24 92.16l5.12-5.12c0-25.6-5.12-56.32-10.24-87.04zM245.76 849.92c-5.12 30.72-10.24 61.44-10.24 87.04l5.12 5.12c0-30.72 5.12-61.44 10.24-92.16h-5.12z" fill="#040C43" p-id="2987"></path></svg>