<svg t="1695201390552" class="icon" viewBox="0 0 1024 1024" version="1.1" xmlns="http://www.w3.org/2000/svg" p-id="66235" width="32" height="32"><path d="M513 512.2m-446.3 0a446.3 446.3 0 1 0 892.6 0 446.3 446.3 0 1 0-892.6 0Z" fill="#DCDCE2" p-id="66236"></path><path d="M348.9 496.7s-47.1-22.5-45.6-86.6c0 0 9.4-45.3 43.5-25.7l6.6-120.9 157-37.3 134.7 33.4 28.1 149s3.8-53.3 37.3-15.3c0 0 22.8 27.3-12.2 82 0 0-15.2 25.8-33.4 21.3 0 0 3 104.8-153.4 126.1 0 0.1-136.9-10.3-162.6-126z" fill="#F9DAC5" p-id="66237"></path><path d="M342.8 417.7S298.7 309.8 394.5 202c0 0 71.2-76 191.4-41 0 0 22.8 9.1 38 21.3 0 0 34.9 21.3 65.3 10.6 0 0 4.6 19.7-31.9 56.2 0 0 48.6 101.8 16.7 168.6 0 0-7.8-106.4-36.5-153.4 0 0-27.3 30.4-135.2-3 0 0-70-10.6-127.6 3 0-0.1-21.2 48.5-31.9 153.4z" fill="#3A1E0A" p-id="66238"></path><path d="M431.5 666.3s73.4 81.5 157.5 0l-2.2-56-152.3 2.9-3 53.1z" fill="#EFD2BE" p-id="66239"></path><path d="M432.8 643.2s73.4 60.9 155.3 0l-1.3-32.8-152.3 2.9-1.7 29.9z" fill="#F2BC9E" p-id="66240"></path><path d="M505.9 958.5s204.6 9.9 341-150.2c-7.3-13.2-43.4-55.3-90.8-70.1l-53.7-18.1H313l-50.7 18.1s-55.5 10.9-87.7 65.1c137.9 161.3 331.3 155.2 331.3 155.2z" fill="#231F20" p-id="66241"></path><path d="M525.7 774.7s14-6.4 18-29.1l-35-38.2-35.6 37.9s5 17.8 16.1 29.5c0 0-16 8.7-26.5 64.5l43.2 119.3 33.9-82.5 15-36.6c0-0.1-18.5-59.2-29.1-64.8z" fill="#D60038" p-id="66242"></path><path d="M398.3 682l113.3 276.5-76.9-6.8L312.5 719z" fill="" p-id="66243"></path><path d="M619.4 682L505.9 958.5l66.3-3.9L702.9 719z" fill="" p-id="66244"></path><path d="M431.8 660.7L398.3 682l42.9 97 67.5-71.7 66.3 72.4 44.4-97.7-30.4-20.2s1.5 16.4-79.7 40.8c0-0.1-87.1-25.2-77.5-41.9z" fill="#EAEAEA" p-id="66245"></path><path d="M357.5 523.5s49.1 68.9 88.6 76.5c0 0 41 12.2 57.7-19.8h7.6s15.2 25.8 51.7 22c0 0 36.3-3.8 97.9-81.3l-7.8 19.8s-14.1 33.4-33.9 44.1c0 0-43 37-66.3 45.6 0 0-18.1 16.2-45.7 12.2 0 0-24.6 3-47.9-13.2 0 0-49.6-30.7-65.3-47.3-0.1 0-24.4-20.1-36.6-58.6z" fill="#3A1E0A" p-id="66246"></path><path d="M599.6 351.3s-66.8-4.6-73.9 32.4l-34.9 0.5s4.6-32.3-67.4-33.1c0 0-64.8 2.2-87.6 9.3l5.6 26.3s12.7-3 12.7 26.8c0 0 2.5 45.1 40.5 55.2 0 0 36 13.2 68.4-3.5 0 0 33.9-14.7 30.4-66.8 0 0 20.3-7.1 29.4 0 0 0-3 45.1 29.9 66.8 0 0 51.1 24.8 88.6-6.1 0 0 23.8-13.7 25.8-61.8 0 0-1-10.6 7.6-12.7l7.1-24.3c-0.2 0.1-33.1-7.5-82.2-9z m-158 114.5s-44.6 8.1-61.3-13.2c0 0-19.8-14.7-19.8-58.2 0 0-1.5-29.4 33.4-29.9h48.6s47.1 2 41 44.6c0.1 0 3.2 45.5-41.9 56.7zM658 394.4c0 43.6-19.8 58.2-19.8 58.2-16.7 21.3-61.3 13.2-61.3 13.2-45.1-11.1-42-56.7-42-56.7-6.1-42.5 41-44.6 41-44.6h48.6c35 0.5 33.5 29.9 33.5 29.9z" fill="#5E3904" p-id="66247"></path><path d="M397 400.4a21.5 26.3 0 1 0 43 0 21.5 26.3 0 1 0-43 0Z" fill="#332113" p-id="66248"></path><path d="M572.3 400.4a21.5 26.3 0 1 0 43 0 21.5 26.3 0 1 0-43 0Z" fill="#332113" p-id="66249"></path><path d="M506.1 554c-15.2 0-29.7-6.9-39.2-18.7-1.1-1.4-0.8-3.4 0.6-4.4 1.3-0.9 3.1-0.7 4.1 0.6 8.4 10.4 21.1 16.5 34.5 16.5 12.8 0 24.7-5.4 33.1-14.9 1.1-1.2 2.9-1.4 4.1-0.4 1.4 1.1 1.6 3.1 0.4 4.4-9.5 10.8-23.1 16.9-37.6 16.9z" fill="#D5925F" p-id="66250"></path></svg>