<?xml version="1.0" standalone="no"?><!DOCTYPE svg PUBLIC "-//W3C//DTD SVG 1.1//EN" "http://www.w3.org/Graphics/SVG/1.1/DTD/svg11.dtd"><svg t="1693150381055" class="icon" viewBox="0 0 1024 1024" version="1.1" xmlns="http://www.w3.org/2000/svg" p-id="7180" xmlns:xlink="http://www.w3.org/1999/xlink" width="32" height="32"><path d="M229.7344 428.84096a30.72 30.72 0 0 1 40.76544-2.38592l2.68288 2.38592L490.3936 646.06208a30.72 30.72 0 0 0 40.76544 2.38592l2.68288-2.38592 217.22112-217.22112a30.72 30.72 0 0 1 45.83424 40.7552l-2.38592 2.68288-217.23136 217.23136a92.16 92.16 0 0 1-126.39232 3.71712l-3.9424-3.71712L229.7344 472.2688a30.72 30.72 0 0 1 0-43.43808z" fill="#90c9b4" p-id="7181"></path><path d="M652.24704 112.64H337.64352a122.88 122.88 0 0 0-96.27648 46.52032L77.80352 365.38368a122.88 122.88 0 0 0 8.5504 162.4064l330.8544 337.27488c48.44544 47.5136 126.24896 46.76608 173.7728-1.67936L918.016 529.95072a122.88 122.88 0 0 0 5.70368-165.85728L745.6768 155.70944A122.88 122.88 0 0 0 652.24704 112.64z m-314.60352 61.44h314.60352a61.44 61.44 0 0 1 46.71488 21.53472l178.04288 208.384a61.44 61.44 0 0 1-2.84672 82.93376L547.11296 820.35712a61.44 61.44 0 0 1-82.944 4.39296l-4.36224-3.97312L130.22208 484.7616a61.44 61.44 0 0 1-4.28032-81.2032l163.56352-206.22336A61.44 61.44 0 0 1 337.64352 174.08z" fill="#90c9b4" p-id="7182"></path></svg>